<svg xmlns="http://www.w3.org/2000/svg" viewBox="0 0 252 134" preserveAspectRatio="xMidYMid slice">
  <defs>
    <linearGradient id="g" x1="0" y1="0" x2="0" y2="1">
      <stop offset="0" stop-color="#6fcaf1"/>
      <stop offset=".52" stop-color="#21b8cc"/>
      <stop offset=".53" stop-color="#e9d18d"/>
      <stop offset="1" stop-color="#c99b55"/>
    </linearGradient>
  </defs>
  <rect width="252" height="134" fill="url(#g)"/>
  <path d="M0 62c40-8 80-7 119 3 51 13 93 9 143-14v31c-56 18-110 20-162 5C62 75 29 74 0 80Z" fill="#bbf8ff" opacity=".75"/>
  <path d="M0 83c48-2 95 8 140 29 39 18 76 21 112 7v15H0Z" fill="#d6aa63"/>
  <g transform="translate(44 25)">
    <path d="M16 92c6-36 7-61 3-91" stroke="#76502f" stroke-width="5" fill="none"/>
    <path d="M19 7c-21-6-39-1-55 15 22 4 42 0 55-15Z" fill="#236f38"/>
    <path d="M21 7c18-13 39-15 62-6-21 16-42 18-62 6Z" fill="#2c8b45"/>
    <path d="M19 6c3-20 15-34 37-42-2 23-16 38-37 42Z" fill="#1f6a36"/>
    <path d="M19 8C6-11-10-21-31-20-18-2-1 9 19 8Z" fill="#31934a"/>
  </g>
  <g fill="#fff" opacity=".65">
    <ellipse cx="166" cy="23" rx="41" ry="9"/>
    <ellipse cx="199" cy="23" rx="24" ry="7"/>
  </g>
</svg>
