<svg xmlns="http://www.w3.org/2000/svg" viewBox="0 0 900 520">
  <defs><linearGradient id="sky" x1="0" y1="0" x2="0" y2="1"><stop offset="0" stop-color="#dbeafe"/><stop offset="1" stop-color="#94a3b8"/></linearGradient></defs>
  <rect width="900" height="520" fill="url(#sky)"/>
  <path d="M0 345 C200 315 380 380 560 338 C705 304 805 335 900 312 L900 520 L0 520Z" fill="#6b7280"/>
  <rect x="245" y="95" width="270" height="250" rx="8" fill="#e5e7eb"/>
  <rect x="310" y="55" width="270" height="292" rx="8" fill="#f8fafc"/>
  <rect x="330" y="78" width="220" height="36" rx="4" fill="#b91c1c"/><text x="352" y="102" font-family="Arial" font-weight="800" font-size="22" fill="#fff">GRAND HOTEL</text>
  <g fill="#93c5fd"><rect x="335" y="140" width="42" height="38" rx="3"/><rect x="410" y="140" width="42" height="38" rx="3"/><rect x="485" y="140" width="42" height="38" rx="3"/><rect x="335" y="205" width="42" height="38" rx="3"/><rect x="410" y="205" width="42" height="38" rx="3"/><rect x="485" y="205" width="42" height="38" rx="3"/><rect x="410" y="280" width="52" height="66" rx="5"/></g>
  <rect x="140" y="260" width="160" height="86" fill="#cbd5e1"/><rect x="600" y="230" width="190" height="116" fill="#cbd5e1"/>
  <rect x="0" y="345" width="900" height="20" fill="#334155"/>
</svg>
