<svg xmlns="http://www.w3.org/2000/svg" viewBox="0 0 900 520">
  <defs><linearGradient id="s" x1="0" y1="0" x2="0" y2="1"><stop offset="0" stop-color="#7dd3fc"/><stop offset="1" stop-color="#f0fdfa"/></linearGradient><linearGradient id="w" x1="0" y1="0" x2="1" y2="1"><stop offset="0" stop-color="#06b6d4"/><stop offset="1" stop-color="#14b8a6"/></linearGradient></defs>
  <rect width="900" height="520" fill="url(#s)"/>
  <g fill="#166534"><path d="M0 235 C110 120 210 120 345 210 C470 290 580 125 690 190 C785 245 850 210 900 165 L900 360 L0 360Z"/><path d="M0 315 C200 260 330 330 520 292 C705 255 785 290 900 260 L900 520 L0 520Z" fill="url(#w)"/></g>
  <path d="M0 380 C230 335 395 410 610 360 C760 325 820 358 900 340 L900 520 L0 520Z" fill="#67e8f9" opacity=".65"/>
  <path d="M80 390 C160 340 260 330 355 360 C455 392 555 340 660 350 C758 360 815 405 900 378 L900 520 L80 520Z" fill="#fef3c7" opacity=".75"/>
  <g transform="translate(110 280)"><rect x="0" y="75" width="230" height="78" rx="8" fill="#f59e0b"/><path d="M-24 78 L115 0 L254 78 Z" fill="#78350f"/><rect x="40" y="98" width="52" height="32" rx="4" fill="#e0f2fe"/><rect x="140" y="98" width="52" height="32" rx="4" fill="#e0f2fe"/></g>
</svg>
