<svg xmlns="http://www.w3.org/2000/svg" viewBox="0 0 900 520">
  <defs><linearGradient id="bg" x1="0" y1="0" x2="0" y2="1"><stop offset="0" stop-color="#bbf7d0"/><stop offset="1" stop-color="#365314"/></linearGradient></defs>
  <rect width="900" height="520" fill="url(#bg)"/>
  <g opacity=".92">
    <circle cx="80" cy="220" r="110" fill="#16a34a"/><circle cx="205" cy="160" r="132" fill="#15803d"/><circle cx="360" cy="205" r="145" fill="#166534"/><circle cx="570" cy="155" r="160" fill="#15803d"/><circle cx="780" cy="210" r="145" fill="#14532d"/>
  </g>
  <rect y="370" width="900" height="150" fill="#4d7c0f"/>
  <g transform="translate(205 82)">
    <rect x="124" y="170" width="340" height="140" rx="12" fill="#7c2d12"/>
    <path d="M80 172 L294 42 L508 172 Z" fill="#451a03"/>
    <path d="M120 172 L294 70 L468 172 Z" fill="#78350f"/>
    <rect x="165" y="205" width="82" height="64" rx="7" fill="#fef3c7" opacity=".85"/>
    <rect x="342" y="205" width="82" height="64" rx="7" fill="#fef3c7" opacity=".85"/>
    <rect x="284" y="236" width="48" height="74" rx="5" fill="#422006"/>
    <rect x="90" y="310" width="418" height="19" rx="10" fill="#422006"/>
    <rect x="118" y="328" width="18" height="86" fill="#422006"/><rect x="458" y="328" width="18" height="86" fill="#422006"/>
  </g>
  <g opacity=".32" fill="#ecfccb"><circle cx="120" cy="80" r="7"/><circle cx="305" cy="46" r="5"/><circle cx="765" cy="69" r="6"/><circle cx="678" cy="338" r="5"/><circle cx="534" cy="39" r="7"/></g>
</svg>
