<svg xmlns="http://www.w3.org/2000/svg" viewBox="0 0 900 520">
  <defs><linearGradient id="wall" x1="0" y1="0" x2="1" y2="1"><stop offset="0" stop-color="#fef3c7"/><stop offset="1" stop-color="#b45309"/></linearGradient></defs>
  <rect width="900" height="520" fill="url(#wall)"/>
  <rect x="0" y="338" width="900" height="182" fill="#7c2d12"/>
  <path d="M0 338 L900 338 L820 520 L65 520Z" fill="#92400e"/>
  <rect x="570" y="80" width="220" height="210" rx="8" fill="#14532d"/>
  <rect x="585" y="96" width="90" height="180" fill="#bbf7d0"/><rect x="685" y="96" width="90" height="180" fill="#86efac"/>
  <path d="M585 230 C635 180 690 195 775 150 L775 276 L585 276Z" fill="#166534" opacity=".85"/>
  <g transform="translate(150 210)">
    <rect x="20" y="70" width="390" height="68" rx="10" fill="#78350f"/>
    <rect x="58" y="0" width="260" height="98" rx="18" fill="#fef08a"/>
    <rect x="0" y="65" width="440" height="76" rx="18" fill="#f59e0b"/>
    <rect x="40" y="130" width="22" height="78" fill="#451a03"/><rect x="350" y="130" width="22" height="78" fill="#451a03"/>
  </g>
  <circle cx="124" cy="160" r="36" fill="#fde68a"/><rect x="108" y="190" width="32" height="125" fill="#854d0e"/>
</svg>
